<svg width="20" height="20" viewBox="0 0 20 20" fill="none" xmlns="http://www.w3.org/2000/svg">
<path d="M2.79413 5.05575C2.79413 3.80675 3.80713 2.79375 5.05513 2.79375H6.08413C6.68013 2.79375 7.25313 2.55775 7.67713 2.13675L8.39613 1.41675C9.27713 0.531746 10.7091 0.527746 11.5941 1.40875L11.6031 1.41675L12.3231 2.13675C12.7461 2.55775 13.3191 2.79375 13.9161 2.79375H14.9441C16.1931 2.79375 17.2061 3.80675 17.2061 5.05575V6.08275C17.2061 6.68075 17.4421 7.25275 17.8631 7.67675L18.5831 8.39675C19.4681 9.27775 19.4731 10.7087 18.5921 11.5947L18.5831 11.6037L17.8631 12.3237C17.4421 12.7457 17.2061 13.3197 17.2061 13.9157V14.9447C17.2061 16.1937 16.1931 17.2057 14.9441 17.2057H13.9161C13.3191 17.2057 12.7461 17.4427 12.3231 17.8637L11.6031 18.5827C10.7231 19.4687 9.29113 19.4727 8.40513 18.5917C8.40213 18.5887 8.39913 18.5857 8.39613 18.5827L7.67713 17.8637C7.25313 17.4427 6.68013 17.2057 6.08413 17.2057H5.05513C3.80713 17.2057 2.79413 16.1937 2.79413 14.9447V13.9157C2.79413 13.3197 2.55713 12.7457 2.13613 12.3237L1.41713 11.6037C0.531134 10.7227 0.527134 9.29075 1.40813 8.40575L1.41713 8.39675L2.13613 7.67675C2.55713 7.25275 2.79413 6.68075 2.79413 6.08275V5.05575" stroke="#FDFDFD" stroke-width="1.5" stroke-linecap="round" stroke-linejoin="round"/>
</svg>
